<svg xmlns="http://www.w3.org/2000/svg" viewBox="-98.09 -24.00 801.34 354.30" width="801" height="354">
<polygon points="0.00,-13.00 11.28,-8.90 0.00,-4.79 -11.28,-8.90" fill="#9be9a8"/>
<polygon points="-11.28,4.10 -11.28,-8.90 0.00,-4.79 0.00,8.21" fill="#88cd93"/>
<polygon points="0.00,8.21 0.00,-4.79 11.28,-8.90 11.28,4.10" fill="#72ac7c"/>
<polygon points="13.16,4.79 24.43,8.89 13.16,13.00 1.88,8.89" fill="#ebedf0"/>
<polygon points="-13.16,-13.21 -1.88,-9.11 -13.16,-5.00 -24.43,-9.11" fill="#30a14e"/>
<polygon points="-24.43,8.89 -24.43,-9.11 -13.16,-5.00 -13.16,13.00" fill="#2a8d44"/>
<polygon points="-13.16,13.00 -13.16,-5.00 -1.88,-9.11 -1.88,8.89" fill="#237739"/>
<polygon points="-26.31,9.58 -15.04,13.68 -26.31,17.79 -37.59,13.68" fill="#ebedf0"/>
<polygon points="0.00,9.58 11.28,13.68 0.00,17.79 -11.28,13.68" fill="#ebedf0"/>
<polygon points="26.31,-4.42 37.59,-0.32 26.31,3.79 15.04,-0.32" fill="#40c463"/>
<polygon points="15.04,13.68 15.04,-0.32 26.31,3.79 26.31,17.79" fill="#38ac57"/>
<polygon points="26.31,17.79 26.31,3.79 37.59,-0.32 37.59,13.68" fill="#2f9149"/>
<polygon points="-39.47,14.36 -28.19,18.47 -39.47,22.57 -50.74,18.47" fill="#ebedf0"/>
<polygon points="13.16,14.36 24.43,18.47 13.16,22.57 1.88,18.47" fill="#ebedf0"/>
<polygon points="39.47,14.36 50.74,18.47 39.47,22.57 28.19,18.47" fill="#ebedf0"/>
<polygon points="-13.16,-3.64 -1.88,0.47 -13.16,4.57 -24.43,0.47" fill="#216e39"/>
<polygon points="-24.43,18.47 -24.43,0.47 -13.16,4.57 -13.16,22.57" fill="#1d6032"/>
<polygon points="-13.16,22.57 -13.16,4.57 -1.88,0.47 -1.88,18.47" fill="#18512a"/>
<polygon points="0.00,19.15 11.28,23.26 0.00,27.36 -11.28,23.26" fill="#ebedf0"/>
<polygon points="52.62,19.15 63.90,23.26 52.62,27.36 41.35,23.26" fill="#ebedf0"/>
<polygon points="-52.62,11.15 -41.35,15.26 -52.62,19.36 -63.90,15.26" fill="#9be9a8"/>
<polygon points="-63.90,23.26 -63.90,15.26 -52.62,19.36 -52.62,27.36" fill="#88cd93"/>
<polygon points="-52.62,27.36 -52.62,19.36 -41.35,15.26 -41.35,23.26" fill="#72ac7c"/>
<polygon points="-26.31,8.15 -15.04,12.26 -26.31,16.36 -37.59,12.26" fill="#9be9a8"/>
<polygon points="-37.59,23.26 -37.59,12.26 -26.31,16.36 -26.31,27.36" fill="#88cd93"/>
<polygon points="-26.31,27.36 -26.31,16.36 -15.04,12.26 -15.04,23.26" fill="#72ac7c"/>
<polygon points="26.31,11.15 37.59,15.26 26.31,19.36 15.04,15.26" fill="#9be9a8"/>
<polygon points="15.04,23.26 15.04,15.26 26.31,19.36 26.31,27.36" fill="#88cd93"/>
<polygon points="26.31,27.36 26.31,19.36 37.59,15.26 37.59,23.26" fill="#72ac7c"/>
<polygon points="-39.47,23.94 -28.19,28.05 -39.47,32.15 -50.74,28.05" fill="#ebedf0"/>
<polygon points="13.16,23.94 24.43,28.05 13.16,32.15 1.88,28.05" fill="#ebedf0"/>
<polygon points="39.47,23.94 50.74,28.05 39.47,32.15 28.19,28.05" fill="#ebedf0"/>
<polygon points="-13.16,9.94 -1.88,14.05 -13.16,18.15 -24.43,14.05" fill="#40c463"/>
<polygon points="-24.43,28.05 -24.43,14.05 -13.16,18.15 -13.16,32.15" fill="#38ac57"/>
<polygon points="-13.16,32.15 -13.16,18.15 -1.88,14.05 -1.88,28.05" fill="#2f9149"/>
<polygon points="65.78,8.94 77.05,13.05 65.78,17.15 54.50,13.05" fill="#40c463"/>
<polygon points="54.50,28.05 54.50,13.05 65.78,17.15 65.78,32.15" fill="#38ac57"/>
<polygon points="65.78,32.15 65.78,17.15 77.05,13.05 77.05,28.05" fill="#2f9149"/>
<polygon points="-65.78,5.94 -54.50,10.05 -65.78,14.15 -77.05,10.05" fill="#216e39"/>
<polygon points="-77.05,28.05 -77.05,10.05 -65.78,14.15 -65.78,32.15" fill="#1d6032"/>
<polygon points="-65.78,32.15 -65.78,14.15 -54.50,10.05 -54.50,28.05" fill="#18512a"/>
<polygon points="-78.93,28.73 -67.66,32.83 -78.93,36.94 -90.21,32.83" fill="#ebedf0"/>
<polygon points="-52.62,28.73 -41.35,32.83 -52.62,36.94 -63.90,32.83" fill="#ebedf0"/>
<polygon points="-26.31,28.73 -15.04,32.83 -26.31,36.94 -37.59,32.83" fill="#ebedf0"/>
<polygon points="0.00,28.73 11.28,32.83 0.00,36.94 -11.28,32.83" fill="#ebedf0"/>
<polygon points="52.62,17.73 63.90,21.83 52.62,25.94 41.35,21.83" fill="#9be9a8"/>
<polygon points="41.35,32.83 41.35,21.83 52.62,25.94 52.62,36.94" fill="#88cd93"/>
<polygon points="52.62,36.94 52.62,25.94 63.90,21.83 63.90,32.83" fill="#72ac7c"/>
<polygon points="78.93,20.73 90.21,24.83 78.93,28.94 67.66,24.83" fill="#9be9a8"/>
<polygon points="67.66,32.83 67.66,24.83 78.93,28.94 78.93,36.94" fill="#88cd93"/>
<polygon points="78.93,36.94 78.93,28.94 90.21,24.83 90.21,32.83" fill="#72ac7c"/>
<polygon points="26.31,10.73 37.59,14.83 26.31,18.94 15.04,14.83" fill="#216e39"/>
<polygon points="15.04,32.83 15.04,14.83 26.31,18.94 26.31,36.94" fill="#1d6032"/>
<polygon points="26.31,36.94 26.31,18.94 37.59,14.83 37.59,32.83" fill="#18512a"/>
<polygon points="-65.78,33.52 -54.50,37.62 -65.78,41.73 -77.05,37.62" fill="#ebedf0"/>
<polygon points="-39.47,33.52 -28.19,37.62 -39.47,41.73 -50.74,37.62" fill="#ebedf0"/>
<polygon points="13.16,33.52 24.43,37.62 13.16,41.73 1.88,37.62" fill="#ebedf0"/>
<polygon points="-13.16,20.52 -1.88,24.62 -13.16,28.73 -24.43,24.62" fill="#9be9a8"/>
<polygon points="-24.43,37.62 -24.43,24.62 -13.16,28.73 -13.16,41.73" fill="#88cd93"/>
<polygon points="-13.16,41.73 -13.16,28.73 -1.88,24.62 -1.88,37.62" fill="#72ac7c"/>
<polygon points="39.47,22.52 50.74,26.62 39.47,30.73 28.19,26.62" fill="#9be9a8"/>
<polygon points="28.19,37.62 28.19,26.62 39.47,30.73 39.47,41.73" fill="#88cd93"/>
<polygon points="39.47,41.73 39.47,30.73 50.74,26.62 50.74,37.62" fill="#72ac7c"/>
<polygon points="92.09,25.52 103.37,29.62 92.09,33.73 80.81,29.62" fill="#9be9a8"/>
<polygon points="80.81,37.62 80.81,29.62 92.09,33.73 92.09,41.73" fill="#88cd93"/>
<polygon points="92.09,41.73 92.09,33.73 103.37,29.62 103.37,37.62" fill="#72ac7c"/>
<polygon points="65.78,19.52 77.05,23.62 65.78,27.73 54.50,23.62" fill="#40c463"/>
<polygon points="54.50,37.62 54.50,23.62 65.78,27.73 65.78,41.73" fill="#38ac57"/>
<polygon points="65.78,41.73 65.78,27.73 77.05,23.62 77.05,37.62" fill="#2f9149"/>
<polygon points="-52.62,38.31 -41.35,42.41 -52.62,46.51 -63.90,42.41" fill="#ebedf0"/>
<polygon points="0.00,38.31 11.28,42.41 0.00,46.51 -11.28,42.41" fill="#ebedf0"/>
<polygon points="52.62,38.31 63.90,42.41 52.62,46.51 41.35,42.41" fill="#ebedf0"/>
<polygon points="105.25,38.31 116.52,42.41 105.25,46.51 93.97,42.41" fill="#ebedf0"/>
<polygon points="-26.31,30.31 -15.04,34.41 -26.31,38.51 -37.59,34.41" fill="#9be9a8"/>
<polygon points="-37.59,42.41 -37.59,34.41 -26.31,38.51 -26.31,46.51" fill="#88cd93"/>
<polygon points="-26.31,46.51 -26.31,38.51 -15.04,34.41 -15.04,42.41" fill="#72ac7c"/>
<polygon points="26.31,25.31 37.59,29.41 26.31,33.51 15.04,29.41" fill="#9be9a8"/>
<polygon points="15.04,42.41 15.04,29.41 26.31,33.51 26.31,46.51" fill="#88cd93"/>
<polygon points="26.31,46.51 26.31,33.51 37.59,29.41 37.59,42.41" fill="#72ac7c"/>
<polygon points="78.93,25.31 90.21,29.41 78.93,33.51 67.66,29.41" fill="#9be9a8"/>
<polygon points="67.66,42.41 67.66,29.41 78.93,33.51 78.93,46.51" fill="#88cd93"/>
<polygon points="78.93,46.51 78.93,33.51 90.21,29.41 90.21,42.41" fill="#72ac7c"/>
<polygon points="-39.47,43.09 -28.19,47.20 -39.47,51.30 -50.74,47.20" fill="#ebedf0"/>
<polygon points="-13.16,43.09 -1.88,47.20 -13.16,51.30 -24.43,47.20" fill="#ebedf0"/>
<polygon points="39.47,43.09 50.74,47.20 39.47,51.30 28.19,47.20" fill="#ebedf0"/>
<polygon points="65.78,43.09 77.05,47.20 65.78,51.30 54.50,47.20" fill="#ebedf0"/>
<polygon points="13.16,32.09 24.43,36.20 13.16,40.30 1.88,36.20" fill="#9be9a8"/>
<polygon points="1.88,47.20 1.88,36.20 13.16,40.30 13.16,51.30" fill="#88cd93"/>
<polygon points="13.16,51.30 13.16,40.30 24.43,36.20 24.43,47.20" fill="#72ac7c"/>
<polygon points="92.09,27.09 103.37,31.20 92.09,35.30 80.81,31.20" fill="#40c463"/>
<polygon points="80.81,47.20 80.81,31.20 92.09,35.30 92.09,51.30" fill="#38ac57"/>
<polygon points="92.09,51.30 92.09,35.30 103.37,31.20 103.37,47.20" fill="#2f9149"/>
<polygon points="118.40,25.09 129.68,29.20 118.40,33.30 107.12,29.20" fill="#216e39"/>
<polygon points="107.12,47.20 107.12,29.20 118.40,33.30 118.40,51.30" fill="#1d6032"/>
<polygon points="118.40,51.30 118.40,33.30 129.68,29.20 129.68,47.20" fill="#18512a"/>
<polygon points="-26.31,47.88 -15.04,51.99 -26.31,56.09 -37.59,51.99" fill="#ebedf0"/>
<polygon points="0.00,47.88 11.28,51.99 0.00,56.09 -11.28,51.99" fill="#ebedf0"/>
<polygon points="26.31,47.88 37.59,51.99 26.31,56.09 15.04,51.99" fill="#ebedf0"/>
<polygon points="52.62,47.88 63.90,51.99 52.62,56.09 41.35,51.99" fill="#ebedf0"/>
<polygon points="131.56,47.88 142.83,51.99 131.56,56.09 120.28,51.99" fill="#ebedf0"/>
<polygon points="105.25,39.88 116.52,43.99 105.25,48.09 93.97,43.99" fill="#9be9a8"/>
<polygon points="93.97,51.99 93.97,43.99 105.25,48.09 105.25,56.09" fill="#88cd93"/>
<polygon points="105.25,56.09 105.25,48.09 116.52,43.99 116.52,51.99" fill="#72ac7c"/>
<polygon points="78.93,31.88 90.21,35.99 78.93,40.09 67.66,35.99" fill="#40c463"/>
<polygon points="67.66,51.99 67.66,35.99 78.93,40.09 78.93,56.09" fill="#38ac57"/>
<polygon points="78.93,56.09 78.93,40.09 90.21,35.99 90.21,51.99" fill="#2f9149"/>
<polygon points="-13.16,52.67 -1.88,56.78 -13.16,60.88 -24.43,56.78" fill="#ebedf0"/>
<polygon points="65.78,52.67 77.05,56.78 65.78,60.88 54.50,56.78" fill="#ebedf0"/>
<polygon points="144.71,52.67 155.99,56.78 144.71,60.88 133.44,56.78" fill="#ebedf0"/>
<polygon points="13.16,44.67 24.43,48.78 13.16,52.88 1.88,48.78" fill="#9be9a8"/>
<polygon points="1.88,56.78 1.88,48.78 13.16,52.88 13.16,60.88" fill="#88cd93"/>
<polygon points="13.16,60.88 13.16,52.88 24.43,48.78 24.43,56.78" fill="#72ac7c"/>
<polygon points="39.47,44.67 50.74,48.78 39.47,52.88 28.19,48.78" fill="#9be9a8"/>
<polygon points="28.19,56.78 28.19,48.78 39.47,52.88 39.47,60.88" fill="#88cd93"/>
<polygon points="39.47,60.88 39.47,52.88 50.74,48.78 50.74,56.78" fill="#72ac7c"/>
<polygon points="92.09,38.67 103.37,42.78 92.09,46.88 80.81,42.78" fill="#40c463"/>
<polygon points="80.81,56.78 80.81,42.78 92.09,46.88 92.09,60.88" fill="#38ac57"/>
<polygon points="92.09,60.88 92.09,46.88 103.37,42.78 103.37,56.78" fill="#2f9149"/>
<polygon points="118.40,38.67 129.68,42.78 118.40,46.88 107.12,42.78" fill="#40c463"/>
<polygon points="107.12,56.78 107.12,42.78 118.40,46.88 118.40,60.88" fill="#38ac57"/>
<polygon points="118.40,60.88 118.40,46.88 129.68,42.78 129.68,56.78" fill="#2f9149"/>
<polygon points="0.00,57.46 11.28,61.56 0.00,65.67 -11.28,61.56" fill="#ebedf0"/>
<polygon points="26.31,57.46 37.59,61.56 26.31,65.67 15.04,61.56" fill="#ebedf0"/>
<polygon points="78.93,46.46 90.21,50.56 78.93,54.67 67.66,50.56" fill="#9be9a8"/>
<polygon points="67.66,61.56 67.66,50.56 78.93,54.67 78.93,65.67" fill="#88cd93"/>
<polygon points="78.93,65.67 78.93,54.67 90.21,50.56 90.21,61.56" fill="#72ac7c"/>
<polygon points="131.56,49.46 142.83,53.56 131.56,57.67 120.28,53.56" fill="#9be9a8"/>
<polygon points="120.28,61.56 120.28,53.56 131.56,57.67 131.56,65.67" fill="#88cd93"/>
<polygon points="131.56,65.67 131.56,57.67 142.83,53.56 142.83,61.56" fill="#72ac7c"/>
<polygon points="157.87,46.46 169.14,50.56 157.87,54.67 146.59,50.56" fill="#9be9a8"/>
<polygon points="146.59,61.56 146.59,50.56 157.87,54.67 157.87,65.67" fill="#88cd93"/>
<polygon points="157.87,65.67 157.87,54.67 169.14,50.56 169.14,61.56" fill="#72ac7c"/>
<polygon points="52.62,43.46 63.90,47.56 52.62,51.67 41.35,47.56" fill="#40c463"/>
<polygon points="41.35,61.56 41.35,47.56 52.62,51.67 52.62,65.67" fill="#38ac57"/>
<polygon points="52.62,65.67 52.62,51.67 63.90,47.56 63.90,61.56" fill="#2f9149"/>
<polygon points="105.25,43.46 116.52,47.56 105.25,51.67 93.97,47.56" fill="#40c463"/>
<polygon points="93.97,61.56 93.97,47.56 105.25,51.67 105.25,65.67" fill="#38ac57"/>
<polygon points="105.25,65.67 105.25,51.67 116.52,47.56 116.52,61.56" fill="#2f9149"/>
<polygon points="144.71,62.25 155.99,66.35 144.71,70.46 133.44,66.35" fill="#ebedf0"/>
<polygon points="171.02,62.25 182.30,66.35 171.02,70.46 159.75,66.35" fill="#ebedf0"/>
<polygon points="13.16,54.25 24.43,58.35 13.16,62.46 1.88,58.35" fill="#9be9a8"/>
<polygon points="1.88,66.35 1.88,58.35 13.16,62.46 13.16,70.46" fill="#88cd93"/>
<polygon points="13.16,70.46 13.16,62.46 24.43,58.35 24.43,66.35" fill="#72ac7c"/>
<polygon points="39.47,48.25 50.74,52.35 39.47,56.46 28.19,52.35" fill="#40c463"/>
<polygon points="28.19,66.35 28.19,52.35 39.47,56.46 39.47,70.46" fill="#38ac57"/>
<polygon points="39.47,70.46 39.47,56.46 50.74,52.35 50.74,66.35" fill="#2f9149"/>
<polygon points="65.78,48.25 77.05,52.35 65.78,56.46 54.50,52.35" fill="#40c463"/>
<polygon points="54.50,66.35 54.50,52.35 65.78,56.46 65.78,70.46" fill="#38ac57"/>
<polygon points="65.78,70.46 65.78,56.46 77.05,52.35 77.05,66.35" fill="#2f9149"/>
<polygon points="92.09,48.25 103.37,52.35 92.09,56.46 80.81,52.35" fill="#40c463"/>
<polygon points="80.81,66.35 80.81,52.35 92.09,56.46 92.09,70.46" fill="#38ac57"/>
<polygon points="92.09,70.46 92.09,56.46 103.37,52.35 103.37,66.35" fill="#2f9149"/>
<polygon points="118.40,47.25 129.68,51.35 118.40,55.46 107.12,51.35" fill="#40c463"/>
<polygon points="107.12,66.35 107.12,51.35 118.40,55.46 118.40,70.46" fill="#38ac57"/>
<polygon points="118.40,70.46 118.40,55.46 129.68,51.35 129.68,66.35" fill="#2f9149"/>
<polygon points="105.25,67.04 116.52,71.14 105.25,75.24 93.97,71.14" fill="#ebedf0"/>
<polygon points="157.87,67.04 169.14,71.14 157.87,75.24 146.59,71.14" fill="#ebedf0"/>
<polygon points="184.18,67.04 195.46,71.14 184.18,75.24 172.90,71.14" fill="#ebedf0"/>
<polygon points="26.31,59.04 37.59,63.14 26.31,67.24 15.04,63.14" fill="#9be9a8"/>
<polygon points="15.04,71.14 15.04,63.14 26.31,67.24 26.31,75.24" fill="#88cd93"/>
<polygon points="26.31,75.24 26.31,67.24 37.59,63.14 37.59,71.14" fill="#72ac7c"/>
<polygon points="52.62,54.04 63.90,58.14 52.62,62.24 41.35,58.14" fill="#9be9a8"/>
<polygon points="41.35,71.14 41.35,58.14 52.62,62.24 52.62,75.24" fill="#88cd93"/>
<polygon points="52.62,75.24 52.62,62.24 63.90,58.14 63.90,71.14" fill="#72ac7c"/>
<polygon points="78.93,56.04 90.21,60.14 78.93,64.24 67.66,60.14" fill="#9be9a8"/>
<polygon points="67.66,71.14 67.66,60.14 78.93,64.24 78.93,75.24" fill="#88cd93"/>
<polygon points="78.93,75.24 78.93,64.24 90.21,60.14 90.21,71.14" fill="#72ac7c"/>
<polygon points="131.56,59.04 142.83,63.14 131.56,67.24 120.28,63.14" fill="#9be9a8"/>
<polygon points="120.28,71.14 120.28,63.14 131.56,67.24 131.56,75.24" fill="#88cd93"/>
<polygon points="131.56,75.24 131.56,67.24 142.83,63.14 142.83,71.14" fill="#72ac7c"/>
<polygon points="144.71,71.82 155.99,75.93 144.71,80.03 133.44,75.93" fill="#ebedf0"/>
<polygon points="171.02,71.82 182.30,75.93 171.02,80.03 159.75,75.93" fill="#ebedf0"/>
<polygon points="197.34,71.82 208.61,75.93 197.34,80.03 186.06,75.93" fill="#ebedf0"/>
<polygon points="39.47,63.82 50.74,67.93 39.47,72.03 28.19,67.93" fill="#9be9a8"/>
<polygon points="28.19,75.93 28.19,67.93 39.47,72.03 39.47,80.03" fill="#88cd93"/>
<polygon points="39.47,80.03 39.47,72.03 50.74,67.93 50.74,75.93" fill="#72ac7c"/>
<polygon points="92.09,63.82 103.37,67.93 92.09,72.03 80.81,67.93" fill="#9be9a8"/>
<polygon points="80.81,75.93 80.81,67.93 92.09,72.03 92.09,80.03" fill="#88cd93"/>
<polygon points="92.09,80.03 92.09,72.03 103.37,67.93 103.37,75.93" fill="#72ac7c"/>
<polygon points="65.78,57.82 77.05,61.93 65.78,66.03 54.50,61.93" fill="#40c463"/>
<polygon points="54.50,75.93 54.50,61.93 65.78,66.03 65.78,80.03" fill="#38ac57"/>
<polygon points="65.78,80.03 65.78,66.03 77.05,61.93 77.05,75.93" fill="#2f9149"/>
<polygon points="118.40,57.82 129.68,61.93 118.40,66.03 107.12,61.93" fill="#40c463"/>
<polygon points="107.12,75.93 107.12,61.93 118.40,66.03 118.40,80.03" fill="#38ac57"/>
<polygon points="118.40,80.03 118.40,66.03 129.68,61.93 129.68,75.93" fill="#2f9149"/>
<polygon points="105.25,76.61 116.52,80.72 105.25,84.82 93.97,80.72" fill="#ebedf0"/>
<polygon points="157.87,76.61 169.14,80.72 157.87,84.82 146.59,80.72" fill="#ebedf0"/>
<polygon points="184.18,76.61 195.46,80.72 184.18,84.82 172.90,80.72" fill="#ebedf0"/>
<polygon points="210.49,76.61 221.77,80.72 210.49,84.82 199.21,80.72" fill="#ebedf0"/>
<polygon points="52.62,68.61 63.90,72.72 52.62,76.82 41.35,72.72" fill="#9be9a8"/>
<polygon points="41.35,80.72 41.35,72.72 52.62,76.82 52.62,84.82" fill="#88cd93"/>
<polygon points="52.62,84.82 52.62,76.82 63.90,72.72 63.90,80.72" fill="#72ac7c"/>
<polygon points="78.93,63.61 90.21,67.72 78.93,71.82 67.66,67.72" fill="#9be9a8"/>
<polygon points="67.66,80.72 67.66,67.72 78.93,71.82 78.93,84.82" fill="#88cd93"/>
<polygon points="78.93,84.82 78.93,71.82 90.21,67.72 90.21,80.72" fill="#72ac7c"/>
<polygon points="131.56,62.61 142.83,66.72 131.56,70.82 120.28,66.72" fill="#40c463"/>
<polygon points="120.28,80.72 120.28,66.72 131.56,70.82 131.56,84.82" fill="#38ac57"/>
<polygon points="131.56,84.82 131.56,70.82 142.83,66.72 142.83,80.72" fill="#2f9149"/>
<polygon points="92.09,81.40 103.37,85.51 92.09,89.61 80.81,85.51" fill="#ebedf0"/>
<polygon points="197.34,81.40 208.61,85.51 197.34,89.61 186.06,85.51" fill="#ebedf0"/>
<polygon points="223.65,81.40 234.92,85.51 223.65,89.61 212.37,85.51" fill="#ebedf0"/>
<polygon points="65.78,73.40 77.05,77.51 65.78,81.61 54.50,77.51" fill="#9be9a8"/>
<polygon points="54.50,85.51 54.50,77.51 65.78,81.61 65.78,89.61" fill="#88cd93"/>
<polygon points="65.78,89.61 65.78,81.61 77.05,77.51 77.05,85.51" fill="#72ac7c"/>
<polygon points="118.40,73.40 129.68,77.51 118.40,81.61 107.12,77.51" fill="#9be9a8"/>
<polygon points="107.12,85.51 107.12,77.51 118.40,81.61 118.40,89.61" fill="#88cd93"/>
<polygon points="118.40,89.61 118.40,81.61 129.68,77.51 129.68,85.51" fill="#72ac7c"/>
<polygon points="144.71,70.40 155.99,74.51 144.71,78.61 133.44,74.51" fill="#9be9a8"/>
<polygon points="133.44,85.51 133.44,74.51 144.71,78.61 144.71,89.61" fill="#88cd93"/>
<polygon points="144.71,89.61 144.71,78.61 155.99,74.51 155.99,85.51" fill="#72ac7c"/>
<polygon points="171.02,68.40 182.30,72.51 171.02,76.61 159.75,72.51" fill="#9be9a8"/>
<polygon points="159.75,85.51 159.75,72.51 171.02,76.61 171.02,89.61" fill="#88cd93"/>
<polygon points="171.02,89.61 171.02,76.61 182.30,72.51 182.30,85.51" fill="#72ac7c"/>
<polygon points="78.93,86.19 90.21,90.29 78.93,94.40 67.66,90.29" fill="#ebedf0"/>
<polygon points="105.25,86.19 116.52,90.29 105.25,94.40 93.97,90.29" fill="#ebedf0"/>
<polygon points="131.56,86.19 142.83,90.29 131.56,94.40 120.28,90.29" fill="#ebedf0"/>
<polygon points="157.87,86.19 169.14,90.29 157.87,94.40 146.59,90.29" fill="#ebedf0"/>
<polygon points="184.18,75.19 195.46,79.29 184.18,83.40 172.90,79.29" fill="#9be9a8"/>
<polygon points="172.90,90.29 172.90,79.29 184.18,83.40 184.18,94.40" fill="#88cd93"/>
<polygon points="184.18,94.40 184.18,83.40 195.46,79.29 195.46,90.29" fill="#72ac7c"/>
<polygon points="210.49,71.19 221.77,75.29 210.49,79.40 199.21,75.29" fill="#40c463"/>
<polygon points="199.21,90.29 199.21,75.29 210.49,79.40 210.49,94.40" fill="#38ac57"/>
<polygon points="210.49,94.40 210.49,79.40 221.77,75.29 221.77,90.29" fill="#2f9149"/>
<polygon points="236.80,68.19 248.08,72.29 236.80,76.40 225.53,72.29" fill="#216e39"/>
<polygon points="225.53,90.29 225.53,72.29 236.80,76.40 236.80,94.40" fill="#1d6032"/>
<polygon points="236.80,94.40 236.80,76.40 248.08,72.29 248.08,90.29" fill="#18512a"/>
<polygon points="92.09,90.98 103.37,95.08 92.09,99.19 80.81,95.08" fill="#ebedf0"/>
<polygon points="118.40,90.98 129.68,95.08 118.40,99.19 107.12,95.08" fill="#ebedf0"/>
<polygon points="144.71,90.98 155.99,95.08 144.71,99.19 133.44,95.08" fill="#ebedf0"/>
<polygon points="171.02,90.98 182.30,95.08 171.02,99.19 159.75,95.08" fill="#ebedf0"/>
<polygon points="249.96,90.98 261.23,95.08 249.96,99.19 238.68,95.08" fill="#ebedf0"/>
<polygon points="197.34,82.98 208.61,87.08 197.34,91.19 186.06,87.08" fill="#9be9a8"/>
<polygon points="186.06,95.08 186.06,87.08 197.34,91.19 197.34,99.19" fill="#88cd93"/>
<polygon points="197.34,99.19 197.34,91.19 208.61,87.08 208.61,95.08" fill="#72ac7c"/>
<polygon points="223.65,82.98 234.92,87.08 223.65,91.19 212.37,87.08" fill="#9be9a8"/>
<polygon points="212.37,95.08 212.37,87.08 223.65,91.19 223.65,99.19" fill="#88cd93"/>
<polygon points="223.65,99.19 223.65,91.19 234.92,87.08 234.92,95.08" fill="#72ac7c"/>
<polygon points="184.18,95.77 195.46,99.87 184.18,103.97 172.90,99.87" fill="#ebedf0"/>
<polygon points="263.11,95.77 274.39,99.87 263.11,103.97 251.84,99.87" fill="#ebedf0"/>
<polygon points="105.25,84.77 116.52,88.87 105.25,92.97 93.97,88.87" fill="#9be9a8"/>
<polygon points="93.97,99.87 93.97,88.87 105.25,92.97 105.25,103.97" fill="#88cd93"/>
<polygon points="105.25,103.97 105.25,92.97 116.52,88.87 116.52,99.87" fill="#72ac7c"/>
<polygon points="131.56,87.77 142.83,91.87 131.56,95.97 120.28,91.87" fill="#9be9a8"/>
<polygon points="120.28,99.87 120.28,91.87 131.56,95.97 131.56,103.97" fill="#88cd93"/>
<polygon points="131.56,103.97 131.56,95.97 142.83,91.87 142.83,99.87" fill="#72ac7c"/>
<polygon points="157.87,84.77 169.14,88.87 157.87,92.97 146.59,88.87" fill="#9be9a8"/>
<polygon points="146.59,99.87 146.59,88.87 157.87,92.97 157.87,103.97" fill="#88cd93"/>
<polygon points="157.87,103.97 157.87,92.97 169.14,88.87 169.14,99.87" fill="#72ac7c"/>
<polygon points="210.49,87.77 221.77,91.87 210.49,95.97 199.21,91.87" fill="#9be9a8"/>
<polygon points="199.21,99.87 199.21,91.87 210.49,95.97 210.49,103.97" fill="#88cd93"/>
<polygon points="210.49,103.97 210.49,95.97 221.77,91.87 221.77,99.87" fill="#72ac7c"/>
<polygon points="236.80,84.77 248.08,88.87 236.80,92.97 225.53,88.87" fill="#9be9a8"/>
<polygon points="225.53,99.87 225.53,88.87 236.80,92.97 236.80,103.97" fill="#88cd93"/>
<polygon points="236.80,103.97 236.80,92.97 248.08,88.87 248.08,99.87" fill="#72ac7c"/>
<polygon points="118.40,100.55 129.68,104.66 118.40,108.76 107.12,104.66" fill="#ebedf0"/>
<polygon points="276.27,100.55 287.55,104.66 276.27,108.76 264.99,104.66" fill="#ebedf0"/>
<polygon points="171.02,87.55 182.30,91.66 171.02,95.76 159.75,91.66" fill="#9be9a8"/>
<polygon points="159.75,104.66 159.75,91.66 171.02,95.76 171.02,108.76" fill="#88cd93"/>
<polygon points="171.02,108.76 171.02,95.76 182.30,91.66 182.30,104.66" fill="#72ac7c"/>
<polygon points="197.34,85.55 208.61,89.66 197.34,93.76 186.06,89.66" fill="#40c463"/>
<polygon points="186.06,104.66 186.06,89.66 197.34,93.76 197.34,108.76" fill="#38ac57"/>
<polygon points="197.34,108.76 197.34,93.76 208.61,89.66 208.61,104.66" fill="#2f9149"/>
<polygon points="223.65,86.55 234.92,90.66 223.65,94.76 212.37,90.66" fill="#40c463"/>
<polygon points="212.37,104.66 212.37,90.66 223.65,94.76 223.65,108.76" fill="#38ac57"/>
<polygon points="223.65,108.76 223.65,94.76 234.92,90.66 234.92,104.66" fill="#2f9149"/>
<polygon points="249.96,84.55 261.23,88.66 249.96,92.76 238.68,88.66" fill="#40c463"/>
<polygon points="238.68,104.66 238.68,88.66 249.96,92.76 249.96,108.76" fill="#38ac57"/>
<polygon points="249.96,108.76 249.96,92.76 261.23,88.66 261.23,104.66" fill="#2f9149"/>
<polygon points="144.71,82.55 155.99,86.66 144.71,90.76 133.44,86.66" fill="#216e39"/>
<polygon points="133.44,104.66 133.44,86.66 144.71,90.76 144.71,108.76" fill="#1d6032"/>
<polygon points="144.71,108.76 144.71,90.76 155.99,86.66 155.99,104.66" fill="#18512a"/>
<polygon points="131.56,105.34 142.83,109.45 131.56,113.55 120.28,109.45" fill="#ebedf0"/>
<polygon points="210.49,105.34 221.77,109.45 210.49,113.55 199.21,109.45" fill="#ebedf0"/>
<polygon points="157.87,94.34 169.14,98.45 157.87,102.55 146.59,98.45" fill="#9be9a8"/>
<polygon points="146.59,109.45 146.59,98.45 157.87,102.55 157.87,113.55" fill="#88cd93"/>
<polygon points="157.87,113.55 157.87,102.55 169.14,98.45 169.14,109.45" fill="#72ac7c"/>
<polygon points="236.80,94.34 248.08,98.45 236.80,102.55 225.53,98.45" fill="#9be9a8"/>
<polygon points="225.53,109.45 225.53,98.45 236.80,102.55 236.80,113.55" fill="#88cd93"/>
<polygon points="236.80,113.55 236.80,102.55 248.08,98.45 248.08,109.45" fill="#72ac7c"/>
<polygon points="263.11,97.34 274.39,101.45 263.11,105.55 251.84,101.45" fill="#9be9a8"/>
<polygon points="251.84,109.45 251.84,101.45 263.11,105.55 263.11,113.55" fill="#88cd93"/>
<polygon points="263.11,113.55 263.11,105.55 274.39,101.45 274.39,109.45" fill="#72ac7c"/>
<polygon points="289.43,97.34 300.70,101.45 289.43,105.55 278.15,101.45" fill="#9be9a8"/>
<polygon points="278.15,109.45 278.15,101.45 289.43,105.55 289.43,113.55" fill="#88cd93"/>
<polygon points="289.43,113.55 289.43,105.55 300.70,101.45 300.70,109.45" fill="#72ac7c"/>
<polygon points="184.18,90.34 195.46,94.45 184.18,98.55 172.90,94.45" fill="#40c463"/>
<polygon points="172.90,109.45 172.90,94.45 184.18,98.55 184.18,113.55" fill="#38ac57"/>
<polygon points="184.18,113.55 184.18,98.55 195.46,94.45 195.46,109.45" fill="#2f9149"/>
<polygon points="171.02,110.13 182.30,114.23 171.02,118.34 159.75,114.23" fill="#ebedf0"/>
<polygon points="223.65,110.13 234.92,114.23 223.65,118.34 212.37,114.23" fill="#ebedf0"/>
<polygon points="302.58,110.13 313.86,114.23 302.58,118.34 291.30,114.23" fill="#ebedf0"/>
<polygon points="197.34,99.13 208.61,103.23 197.34,107.34 186.06,103.23" fill="#9be9a8"/>
<polygon points="186.06,114.23 186.06,103.23 197.34,107.34 197.34,118.34" fill="#88cd93"/>
<polygon points="197.34,118.34 197.34,107.34 208.61,103.23 208.61,114.23" fill="#72ac7c"/>
<polygon points="276.27,102.13 287.55,106.23 276.27,110.34 264.99,106.23" fill="#9be9a8"/>
<polygon points="264.99,114.23 264.99,106.23 276.27,110.34 276.27,118.34" fill="#88cd93"/>
<polygon points="276.27,118.34 276.27,110.34 287.55,106.23 287.55,114.23" fill="#72ac7c"/>
<polygon points="249.96,96.13 261.23,100.23 249.96,104.34 238.68,100.23" fill="#40c463"/>
<polygon points="238.68,114.23 238.68,100.23 249.96,104.34 249.96,118.34" fill="#38ac57"/>
<polygon points="249.96,118.34 249.96,104.34 261.23,100.23 261.23,114.23" fill="#2f9149"/>
<polygon points="144.71,92.13 155.99,96.23 144.71,100.34 133.44,96.23" fill="#216e39"/>
<polygon points="133.44,114.23 133.44,96.23 144.71,100.34 144.71,118.34" fill="#1d6032"/>
<polygon points="144.71,118.34 144.71,100.34 155.99,96.23 155.99,114.23" fill="#18512a"/>
<polygon points="157.87,114.92 169.14,119.02 157.87,123.13 146.59,119.02" fill="#ebedf0"/>
<polygon points="184.18,114.92 195.46,119.02 184.18,123.13 172.90,119.02" fill="#ebedf0"/>
<polygon points="210.49,114.92 221.77,119.02 210.49,123.13 199.21,119.02" fill="#ebedf0"/>
<polygon points="315.74,114.92 327.01,119.02 315.74,123.13 304.46,119.02" fill="#ebedf0"/>
<polygon points="236.80,106.92 248.08,111.02 236.80,115.13 225.53,111.02" fill="#9be9a8"/>
<polygon points="225.53,119.02 225.53,111.02 236.80,115.13 236.80,123.13" fill="#88cd93"/>
<polygon points="236.80,123.13 236.80,115.13 248.08,111.02 248.08,119.02" fill="#72ac7c"/>
<polygon points="263.11,103.92 274.39,108.02 263.11,112.13 251.84,108.02" fill="#9be9a8"/>
<polygon points="251.84,119.02 251.84,108.02 263.11,112.13 263.11,123.13" fill="#88cd93"/>
<polygon points="263.11,123.13 263.11,112.13 274.39,108.02 274.39,119.02" fill="#72ac7c"/>
<polygon points="289.43,103.92 300.70,108.02 289.43,112.13 278.15,108.02" fill="#9be9a8"/>
<polygon points="278.15,119.02 278.15,108.02 289.43,112.13 289.43,123.13" fill="#88cd93"/>
<polygon points="289.43,123.13 289.43,112.13 300.70,108.02 300.70,119.02" fill="#72ac7c"/>
<polygon points="171.02,119.71 182.30,123.81 171.02,127.92 159.75,123.81" fill="#ebedf0"/>
<polygon points="197.34,119.71 208.61,123.81 197.34,127.92 186.06,123.81" fill="#ebedf0"/>
<polygon points="223.65,119.71 234.92,123.81 223.65,127.92 212.37,123.81" fill="#ebedf0"/>
<polygon points="249.96,119.71 261.23,123.81 249.96,127.92 238.68,123.81" fill="#ebedf0"/>
<polygon points="276.27,119.71 287.55,123.81 276.27,127.92 264.99,123.81" fill="#ebedf0"/>
<polygon points="328.89,119.71 340.17,123.81 328.89,127.92 317.62,123.81" fill="#ebedf0"/>
<polygon points="302.58,111.71 313.86,115.81 302.58,119.92 291.30,115.81" fill="#9be9a8"/>
<polygon points="291.30,123.81 291.30,115.81 302.58,119.92 302.58,127.92" fill="#88cd93"/>
<polygon points="302.58,127.92 302.58,119.92 313.86,115.81 313.86,123.81" fill="#72ac7c"/>
<polygon points="184.18,124.50 195.46,128.60 184.18,132.70 172.90,128.60" fill="#ebedf0"/>
<polygon points="210.49,124.50 221.77,128.60 210.49,132.70 199.21,128.60" fill="#ebedf0"/>
<polygon points="263.11,124.50 274.39,128.60 263.11,132.70 251.84,128.60" fill="#ebedf0"/>
<polygon points="289.43,124.50 300.70,128.60 289.43,132.70 278.15,128.60" fill="#ebedf0"/>
<polygon points="315.74,124.50 327.01,128.60 315.74,132.70 304.46,128.60" fill="#ebedf0"/>
<polygon points="342.05,124.50 353.32,128.60 342.05,132.70 330.77,128.60" fill="#ebedf0"/>
<polygon points="236.80,108.50 248.08,112.60 236.80,116.70 225.53,112.60" fill="#40c463"/>
<polygon points="225.53,128.60 225.53,112.60 236.80,116.70 236.80,132.70" fill="#38ac57"/>
<polygon points="236.80,132.70 236.80,116.70 248.08,112.60 248.08,128.60" fill="#2f9149"/>
<polygon points="197.34,129.28 208.61,133.39 197.34,137.49 186.06,133.39" fill="#ebedf0"/>
<polygon points="249.96,129.28 261.23,133.39 249.96,137.49 238.68,133.39" fill="#ebedf0"/>
<polygon points="276.27,129.28 287.55,133.39 276.27,137.49 264.99,133.39" fill="#ebedf0"/>
<polygon points="355.20,129.28 366.48,133.39 355.20,137.49 343.93,133.39" fill="#ebedf0"/>
<polygon points="328.89,118.28 340.17,122.39 328.89,126.49 317.62,122.39" fill="#9be9a8"/>
<polygon points="317.62,133.39 317.62,122.39 328.89,126.49 328.89,137.49" fill="#88cd93"/>
<polygon points="328.89,137.49 328.89,126.49 340.17,122.39 340.17,133.39" fill="#72ac7c"/>
<polygon points="302.58,114.28 313.86,118.39 302.58,122.49 291.30,118.39" fill="#40c463"/>
<polygon points="291.30,133.39 291.30,118.39 302.58,122.49 302.58,137.49" fill="#38ac57"/>
<polygon points="302.58,137.49 302.58,122.49 313.86,118.39 313.86,133.39" fill="#2f9149"/>
<polygon points="223.65,113.28 234.92,117.39 223.65,121.49 212.37,117.39" fill="#30a14e"/>
<polygon points="212.37,133.39 212.37,117.39 223.65,121.49 223.65,137.49" fill="#2a8d44"/>
<polygon points="223.65,137.49 223.65,121.49 234.92,117.39 234.92,133.39" fill="#237739"/>
<polygon points="210.49,134.07 221.77,138.18 210.49,142.28 199.21,138.18" fill="#ebedf0"/>
<polygon points="236.80,134.07 248.08,138.18 236.80,142.28 225.53,138.18" fill="#ebedf0"/>
<polygon points="263.11,134.07 274.39,138.18 263.11,142.28 251.84,138.18" fill="#ebedf0"/>
<polygon points="315.74,134.07 327.01,138.18 315.74,142.28 304.46,138.18" fill="#ebedf0"/>
<polygon points="342.05,134.07 353.32,138.18 342.05,142.28 330.77,138.18" fill="#ebedf0"/>
<polygon points="368.36,120.07 379.64,124.18 368.36,128.28 357.08,124.18" fill="#40c463"/>
<polygon points="357.08,138.18 357.08,124.18 368.36,128.28 368.36,142.28" fill="#38ac57"/>
<polygon points="368.36,142.28 368.36,128.28 379.64,124.18 379.64,138.18" fill="#2f9149"/>
<polygon points="289.43,116.07 300.70,120.18 289.43,124.28 278.15,120.18" fill="#30a14e"/>
<polygon points="278.15,138.18 278.15,120.18 289.43,124.28 289.43,142.28" fill="#2a8d44"/>
<polygon points="289.43,142.28 289.43,124.28 300.70,120.18 300.70,138.18" fill="#237739"/>
<polygon points="223.65,138.86 234.92,142.96 223.65,147.07 212.37,142.96" fill="#ebedf0"/>
<polygon points="249.96,138.86 261.23,142.96 249.96,147.07 238.68,142.96" fill="#ebedf0"/>
<polygon points="276.27,138.86 287.55,142.96 276.27,147.07 264.99,142.96" fill="#ebedf0"/>
<polygon points="302.58,138.86 313.86,142.96 302.58,147.07 291.30,142.96" fill="#ebedf0"/>
<polygon points="355.20,130.86 366.48,134.96 355.20,139.07 343.93,134.96" fill="#9be9a8"/>
<polygon points="343.93,142.96 343.93,134.96 355.20,139.07 355.20,147.07" fill="#88cd93"/>
<polygon points="355.20,147.07 355.20,139.07 366.48,134.96 366.48,142.96" fill="#72ac7c"/>
<polygon points="381.52,127.86 392.79,131.96 381.52,136.07 370.24,131.96" fill="#9be9a8"/>
<polygon points="370.24,142.96 370.24,131.96 381.52,136.07 381.52,147.07" fill="#88cd93"/>
<polygon points="381.52,147.07 381.52,136.07 392.79,131.96 392.79,142.96" fill="#72ac7c"/>
<polygon points="328.89,124.86 340.17,128.96 328.89,133.07 317.62,128.96" fill="#40c463"/>
<polygon points="317.62,142.96 317.62,128.96 328.89,133.07 328.89,147.07" fill="#38ac57"/>
<polygon points="328.89,147.07 328.89,133.07 340.17,128.96 340.17,142.96" fill="#2f9149"/>
<polygon points="263.11,143.65 274.39,147.75 263.11,151.86 251.84,147.75" fill="#ebedf0"/>
<polygon points="394.67,143.65 405.95,147.75 394.67,151.86 383.39,147.75" fill="#ebedf0"/>
<polygon points="236.80,130.65 248.08,134.75 236.80,138.86 225.53,134.75" fill="#9be9a8"/>
<polygon points="225.53,147.75 225.53,134.75 236.80,138.86 236.80,151.86" fill="#88cd93"/>
<polygon points="236.80,151.86 236.80,138.86 248.08,134.75 248.08,147.75" fill="#72ac7c"/>
<polygon points="289.43,135.65 300.70,139.75 289.43,143.86 278.15,139.75" fill="#9be9a8"/>
<polygon points="278.15,147.75 278.15,139.75 289.43,143.86 289.43,151.86" fill="#88cd93"/>
<polygon points="289.43,151.86 289.43,143.86 300.70,139.75 300.70,147.75" fill="#72ac7c"/>
<polygon points="315.74,135.65 327.01,139.75 315.74,143.86 304.46,139.75" fill="#9be9a8"/>
<polygon points="304.46,147.75 304.46,139.75 315.74,143.86 315.74,151.86" fill="#88cd93"/>
<polygon points="315.74,151.86 315.74,143.86 327.01,139.75 327.01,147.75" fill="#72ac7c"/>
<polygon points="342.05,135.65 353.32,139.75 342.05,143.86 330.77,139.75" fill="#9be9a8"/>
<polygon points="330.77,147.75 330.77,139.75 342.05,143.86 342.05,151.86" fill="#88cd93"/>
<polygon points="342.05,151.86 342.05,143.86 353.32,139.75 353.32,147.75" fill="#72ac7c"/>
<polygon points="368.36,128.65 379.64,132.75 368.36,136.86 357.08,132.75" fill="#40c463"/>
<polygon points="357.08,147.75 357.08,132.75 368.36,136.86 368.36,151.86" fill="#38ac57"/>
<polygon points="368.36,151.86 368.36,136.86 379.64,132.75 379.64,147.75" fill="#2f9149"/>
<polygon points="276.27,148.44 287.55,152.54 276.27,156.65 264.99,152.54" fill="#ebedf0"/>
<polygon points="302.58,148.44 313.86,152.54 302.58,156.65 291.30,152.54" fill="#ebedf0"/>
<polygon points="407.83,148.44 419.10,152.54 407.83,156.65 396.55,152.54" fill="#ebedf0"/>
<polygon points="249.96,140.44 261.23,144.54 249.96,148.65 238.68,144.54" fill="#9be9a8"/>
<polygon points="238.68,152.54 238.68,144.54 249.96,148.65 249.96,156.65" fill="#88cd93"/>
<polygon points="249.96,156.65 249.96,148.65 261.23,144.54 261.23,152.54" fill="#72ac7c"/>
<polygon points="381.52,137.44 392.79,141.54 381.52,145.65 370.24,141.54" fill="#9be9a8"/>
<polygon points="370.24,152.54 370.24,141.54 381.52,145.65 381.52,156.65" fill="#88cd93"/>
<polygon points="381.52,156.65 381.52,145.65 392.79,141.54 392.79,152.54" fill="#72ac7c"/>
<polygon points="328.89,134.44 340.17,138.54 328.89,142.65 317.62,138.54" fill="#40c463"/>
<polygon points="317.62,152.54 317.62,138.54 328.89,142.65 328.89,156.65" fill="#38ac57"/>
<polygon points="328.89,156.65 328.89,142.65 340.17,138.54 340.17,152.54" fill="#2f9149"/>
<polygon points="355.20,134.44 366.48,138.54 355.20,142.65 343.93,138.54" fill="#40c463"/>
<polygon points="343.93,152.54 343.93,138.54 355.20,142.65 355.20,156.65" fill="#38ac57"/>
<polygon points="355.20,156.65 355.20,142.65 366.48,138.54 366.48,152.54" fill="#2f9149"/>
<polygon points="263.11,153.23 274.39,157.33 263.11,161.43 251.84,157.33" fill="#ebedf0"/>
<polygon points="289.43,153.23 300.70,157.33 289.43,161.43 278.15,157.33" fill="#ebedf0"/>
<polygon points="342.05,153.23 353.32,157.33 342.05,161.43 330.77,157.33" fill="#ebedf0"/>
<polygon points="368.36,153.23 379.64,157.33 368.36,161.43 357.08,157.33" fill="#ebedf0"/>
<polygon points="394.67,153.23 405.95,157.33 394.67,161.43 383.39,157.33" fill="#ebedf0"/>
<polygon points="420.98,153.23 432.26,157.33 420.98,161.43 409.71,157.33" fill="#ebedf0"/>
<polygon points="315.74,135.23 327.01,139.33 315.74,143.43 304.46,139.33" fill="#216e39"/>
<polygon points="304.46,157.33 304.46,139.33 315.74,143.43 315.74,161.43" fill="#1d6032"/>
<polygon points="315.74,161.43 315.74,143.43 327.01,139.33 327.01,157.33" fill="#18512a"/>
<polygon points="381.52,158.01 392.79,162.12 381.52,166.22 370.24,162.12" fill="#ebedf0"/>
<polygon points="407.83,158.01 419.10,162.12 407.83,166.22 396.55,162.12" fill="#ebedf0"/>
<polygon points="434.14,158.01 445.41,162.12 434.14,166.22 422.86,162.12" fill="#ebedf0"/>
<polygon points="328.89,147.01 340.17,151.12 328.89,155.22 317.62,151.12" fill="#9be9a8"/>
<polygon points="317.62,162.12 317.62,151.12 328.89,155.22 328.89,166.22" fill="#88cd93"/>
<polygon points="328.89,166.22 328.89,155.22 340.17,151.12 340.17,162.12" fill="#72ac7c"/>
<polygon points="276.27,144.01 287.55,148.12 276.27,152.22 264.99,148.12" fill="#40c463"/>
<polygon points="264.99,162.12 264.99,148.12 276.27,152.22 276.27,166.22" fill="#38ac57"/>
<polygon points="276.27,166.22 276.27,152.22 287.55,148.12 287.55,162.12" fill="#2f9149"/>
<polygon points="302.58,142.01 313.86,146.12 302.58,150.22 291.30,146.12" fill="#40c463"/>
<polygon points="291.30,162.12 291.30,146.12 302.58,150.22 302.58,166.22" fill="#38ac57"/>
<polygon points="302.58,166.22 302.58,150.22 313.86,146.12 313.86,162.12" fill="#2f9149"/>
<polygon points="355.20,141.01 366.48,145.12 355.20,149.22 343.93,145.12" fill="#30a14e"/>
<polygon points="343.93,162.12 343.93,145.12 355.20,149.22 355.20,166.22" fill="#2a8d44"/>
<polygon points="355.20,166.22 355.20,149.22 366.48,145.12 366.48,162.12" fill="#237739"/>
<polygon points="289.43,162.80 300.70,166.91 289.43,171.01 278.15,166.91" fill="#ebedf0"/>
<polygon points="342.05,162.80 353.32,166.91 342.05,171.01 330.77,166.91" fill="#ebedf0"/>
<polygon points="420.98,162.80 432.26,166.91 420.98,171.01 409.71,166.91" fill="#ebedf0"/>
<polygon points="447.29,162.80 458.57,166.91 447.29,171.01 436.02,166.91" fill="#ebedf0"/>
<polygon points="315.74,151.80 327.01,155.91 315.74,160.01 304.46,155.91" fill="#9be9a8"/>
<polygon points="304.46,166.91 304.46,155.91 315.74,160.01 315.74,171.01" fill="#88cd93"/>
<polygon points="315.74,171.01 315.74,160.01 327.01,155.91 327.01,166.91" fill="#72ac7c"/>
<polygon points="368.36,151.80 379.64,155.91 368.36,160.01 357.08,155.91" fill="#9be9a8"/>
<polygon points="357.08,166.91 357.08,155.91 368.36,160.01 368.36,171.01" fill="#88cd93"/>
<polygon points="368.36,171.01 368.36,160.01 379.64,155.91 379.64,166.91" fill="#72ac7c"/>
<polygon points="394.67,148.80 405.95,152.91 394.67,157.01 383.39,152.91" fill="#40c463"/>
<polygon points="383.39,166.91 383.39,152.91 394.67,157.01 394.67,171.01" fill="#38ac57"/>
<polygon points="394.67,171.01 394.67,157.01 405.95,152.91 405.95,166.91" fill="#2f9149"/>
<polygon points="302.58,167.59 313.86,171.69 302.58,175.80 291.30,171.69" fill="#ebedf0"/>
<polygon points="434.14,167.59 445.41,171.69 434.14,175.80 422.86,171.69" fill="#ebedf0"/>
<polygon points="460.45,167.59 471.73,171.69 460.45,175.80 449.17,171.69" fill="#ebedf0"/>
<polygon points="407.83,159.59 419.10,163.69 407.83,167.80 396.55,163.69" fill="#9be9a8"/>
<polygon points="396.55,171.69 396.55,163.69 407.83,167.80 407.83,175.80" fill="#88cd93"/>
<polygon points="407.83,175.80 407.83,167.80 419.10,163.69 419.10,171.69" fill="#72ac7c"/>
<polygon points="355.20,153.59 366.48,157.69 355.20,161.80 343.93,157.69" fill="#40c463"/>
<polygon points="343.93,171.69 343.93,157.69 355.20,161.80 355.20,175.80" fill="#38ac57"/>
<polygon points="355.20,175.80 355.20,161.80 366.48,157.69 366.48,171.69" fill="#2f9149"/>
<polygon points="381.52,153.59 392.79,157.69 381.52,161.80 370.24,157.69" fill="#40c463"/>
<polygon points="370.24,171.69 370.24,157.69 381.52,161.80 381.52,175.80" fill="#38ac57"/>
<polygon points="381.52,175.80 381.52,161.80 392.79,157.69 392.79,171.69" fill="#2f9149"/>
<polygon points="328.89,150.59 340.17,154.69 328.89,158.80 317.62,154.69" fill="#30a14e"/>
<polygon points="317.62,171.69 317.62,154.69 328.89,158.80 328.89,175.80" fill="#2a8d44"/>
<polygon points="328.89,175.80 328.89,158.80 340.17,154.69 340.17,171.69" fill="#237739"/>
<polygon points="315.74,172.38 327.01,176.48 315.74,180.59 304.46,176.48" fill="#ebedf0"/>
<polygon points="394.67,172.38 405.95,176.48 394.67,180.59 383.39,176.48" fill="#ebedf0"/>
<polygon points="420.98,172.38 432.26,176.48 420.98,180.59 409.71,176.48" fill="#ebedf0"/>
<polygon points="447.29,172.38 458.57,176.48 447.29,180.59 436.02,176.48" fill="#ebedf0"/>
<polygon points="473.61,172.38 484.88,176.48 473.61,180.59 462.33,176.48" fill="#ebedf0"/>
<polygon points="368.36,164.38 379.64,168.48 368.36,172.59 357.08,168.48" fill="#9be9a8"/>
<polygon points="357.08,176.48 357.08,168.48 368.36,172.59 368.36,180.59" fill="#88cd93"/>
<polygon points="368.36,180.59 368.36,172.59 379.64,168.48 379.64,176.48" fill="#72ac7c"/>
<polygon points="342.05,158.38 353.32,162.48 342.05,166.59 330.77,162.48" fill="#40c463"/>
<polygon points="330.77,176.48 330.77,162.48 342.05,166.59 342.05,180.59" fill="#38ac57"/>
<polygon points="342.05,180.59 342.05,166.59 353.32,162.48 353.32,176.48" fill="#2f9149"/>
<polygon points="355.20,177.17 366.48,181.27 355.20,185.37 343.93,181.27" fill="#ebedf0"/>
<polygon points="381.52,177.17 392.79,181.27 381.52,185.37 370.24,181.27" fill="#ebedf0"/>
<polygon points="407.83,177.17 419.10,181.27 407.83,185.37 396.55,181.27" fill="#ebedf0"/>
<polygon points="434.14,177.17 445.41,181.27 434.14,185.37 422.86,181.27" fill="#ebedf0"/>
<polygon points="460.45,177.17 471.73,181.27 460.45,185.37 449.17,181.27" fill="#ebedf0"/>
<polygon points="486.76,177.17 498.04,181.27 486.76,185.37 475.48,181.27" fill="#ebedf0"/>
<polygon points="328.89,166.17 340.17,170.27 328.89,174.37 317.62,170.27" fill="#9be9a8"/>
<polygon points="317.62,181.27 317.62,170.27 328.89,174.37 328.89,185.37" fill="#88cd93"/>
<polygon points="328.89,185.37 328.89,174.37 340.17,170.27 340.17,181.27" fill="#72ac7c"/>
<polygon points="342.05,181.95 353.32,186.06 342.05,190.16 330.77,186.06" fill="#ebedf0"/>
<polygon points="368.36,181.95 379.64,186.06 368.36,190.16 357.08,186.06" fill="#ebedf0"/>
<polygon points="394.67,181.95 405.95,186.06 394.67,190.16 383.39,186.06" fill="#ebedf0"/>
<polygon points="420.98,181.95 432.26,186.06 420.98,190.16 409.71,186.06" fill="#ebedf0"/>
<polygon points="447.29,181.95 458.57,186.06 447.29,190.16 436.02,186.06" fill="#ebedf0"/>
<polygon points="473.61,181.95 484.88,186.06 473.61,190.16 462.33,186.06" fill="#ebedf0"/>
<polygon points="499.92,181.95 511.19,186.06 499.92,190.16 488.64,186.06" fill="#ebedf0"/>
<polygon points="355.20,186.74 366.48,190.85 355.20,194.95 343.93,190.85" fill="#ebedf0"/>
<polygon points="381.52,186.74 392.79,190.85 381.52,194.95 370.24,190.85" fill="#ebedf0"/>
<polygon points="407.83,186.74 419.10,190.85 407.83,194.95 396.55,190.85" fill="#ebedf0"/>
<polygon points="434.14,186.74 445.41,190.85 434.14,194.95 422.86,190.85" fill="#ebedf0"/>
<polygon points="460.45,186.74 471.73,190.85 460.45,194.95 449.17,190.85" fill="#ebedf0"/>
<polygon points="486.76,186.74 498.04,190.85 486.76,194.95 475.48,190.85" fill="#ebedf0"/>
<polygon points="513.07,169.74 524.35,173.85 513.07,177.95 501.80,173.85" fill="#30a14e"/>
<polygon points="501.80,190.85 501.80,173.85 513.07,177.95 513.07,194.95" fill="#2a8d44"/>
<polygon points="513.07,194.95 513.07,177.95 524.35,173.85 524.35,190.85" fill="#237739"/>
<polygon points="368.36,191.53 379.64,195.64 368.36,199.74 357.08,195.64" fill="#ebedf0"/>
<polygon points="394.67,191.53 405.95,195.64 394.67,199.74 383.39,195.64" fill="#ebedf0"/>
<polygon points="473.61,191.53 484.88,195.64 473.61,199.74 462.33,195.64" fill="#ebedf0"/>
<polygon points="526.23,191.53 537.50,195.64 526.23,199.74 514.95,195.64" fill="#ebedf0"/>
<polygon points="420.98,183.53 432.26,187.64 420.98,191.74 409.71,187.64" fill="#9be9a8"/>
<polygon points="409.71,195.64 409.71,187.64 420.98,191.74 420.98,199.74" fill="#88cd93"/>
<polygon points="420.98,199.74 420.98,191.74 432.26,187.64 432.26,195.64" fill="#72ac7c"/>
<polygon points="447.29,183.53 458.57,187.64 447.29,191.74 436.02,187.64" fill="#9be9a8"/>
<polygon points="436.02,195.64 436.02,187.64 447.29,191.74 447.29,199.74" fill="#88cd93"/>
<polygon points="447.29,199.74 447.29,191.74 458.57,187.64 458.57,195.64" fill="#72ac7c"/>
<polygon points="499.92,177.53 511.19,181.64 499.92,185.74 488.64,181.64" fill="#40c463"/>
<polygon points="488.64,195.64 488.64,181.64 499.92,185.74 499.92,199.74" fill="#38ac57"/>
<polygon points="499.92,199.74 499.92,185.74 511.19,181.64 511.19,195.64" fill="#2f9149"/>
<polygon points="381.52,196.32 392.79,200.42 381.52,204.53 370.24,200.42" fill="#ebedf0"/>
<polygon points="460.45,196.32 471.73,200.42 460.45,204.53 449.17,200.42" fill="#ebedf0"/>
<polygon points="486.76,196.32 498.04,200.42 486.76,204.53 475.48,200.42" fill="#ebedf0"/>
<polygon points="407.83,188.32 419.10,192.42 407.83,196.53 396.55,192.42" fill="#9be9a8"/>
<polygon points="396.55,200.42 396.55,192.42 407.83,196.53 407.83,204.53" fill="#88cd93"/>
<polygon points="407.83,204.53 407.83,196.53 419.10,192.42 419.10,200.42" fill="#72ac7c"/>
<polygon points="434.14,185.32 445.41,189.42 434.14,193.53 422.86,189.42" fill="#9be9a8"/>
<polygon points="422.86,200.42 422.86,189.42 434.14,193.53 434.14,204.53" fill="#88cd93"/>
<polygon points="434.14,204.53 434.14,193.53 445.41,189.42 445.41,200.42" fill="#72ac7c"/>
<polygon points="539.38,185.32 550.66,189.42 539.38,193.53 528.11,189.42" fill="#9be9a8"/>
<polygon points="528.11,200.42 528.11,189.42 539.38,193.53 539.38,204.53" fill="#88cd93"/>
<polygon points="539.38,204.53 539.38,193.53 550.66,189.42 550.66,200.42" fill="#72ac7c"/>
<polygon points="513.07,180.32 524.35,184.42 513.07,188.53 501.80,184.42" fill="#30a14e"/>
<polygon points="501.80,200.42 501.80,184.42 513.07,188.53 513.07,204.53" fill="#2a8d44"/>
<polygon points="513.07,204.53 513.07,188.53 524.35,184.42 524.35,200.42" fill="#237739"/>
<polygon points="394.67,201.11 405.95,205.21 394.67,209.32 383.39,205.21" fill="#ebedf0"/>
<polygon points="447.29,201.11 458.57,205.21 447.29,209.32 436.02,205.21" fill="#ebedf0"/>
<polygon points="499.92,201.11 511.19,205.21 499.92,209.32 488.64,205.21" fill="#ebedf0"/>
<polygon points="473.61,193.11 484.88,197.21 473.61,201.32 462.33,197.21" fill="#9be9a8"/>
<polygon points="462.33,205.21 462.33,197.21 473.61,201.32 473.61,209.32" fill="#88cd93"/>
<polygon points="473.61,209.32 473.61,201.32 484.88,197.21 484.88,205.21" fill="#72ac7c"/>
<polygon points="420.98,187.11 432.26,191.21 420.98,195.32 409.71,191.21" fill="#40c463"/>
<polygon points="409.71,205.21 409.71,191.21 420.98,195.32 420.98,209.32" fill="#38ac57"/>
<polygon points="420.98,209.32 420.98,195.32 432.26,191.21 432.26,205.21" fill="#2f9149"/>
<polygon points="526.23,183.11 537.50,187.21 526.23,191.32 514.95,187.21" fill="#216e39"/>
<polygon points="514.95,205.21 514.95,187.21 526.23,191.32 526.23,209.32" fill="#1d6032"/>
<polygon points="526.23,209.32 526.23,191.32 537.50,187.21 537.50,205.21" fill="#18512a"/>
<polygon points="552.54,183.11 563.82,187.21 552.54,191.32 541.26,187.21" fill="#216e39"/>
<polygon points="541.26,205.21 541.26,187.21 552.54,191.32 552.54,209.32" fill="#1d6032"/>
<polygon points="552.54,209.32 552.54,191.32 563.82,187.21 563.82,205.21" fill="#18512a"/>
<polygon points="460.45,205.90 471.73,210.00 460.45,214.10 449.17,210.00" fill="#ebedf0"/>
<polygon points="565.69,205.90 576.97,210.00 565.69,214.10 554.42,210.00" fill="#ebedf0"/>
<polygon points="407.83,197.90 419.10,202.00 407.83,206.10 396.55,202.00" fill="#9be9a8"/>
<polygon points="396.55,210.00 396.55,202.00 407.83,206.10 407.83,214.10" fill="#88cd93"/>
<polygon points="407.83,214.10 407.83,206.10 419.10,202.00 419.10,210.00" fill="#72ac7c"/>
<polygon points="513.07,192.90 524.35,197.00 513.07,201.10 501.80,197.00" fill="#9be9a8"/>
<polygon points="501.80,210.00 501.80,197.00 513.07,201.10 513.07,214.10" fill="#88cd93"/>
<polygon points="513.07,214.10 513.07,201.10 524.35,197.00 524.35,210.00" fill="#72ac7c"/>
<polygon points="434.14,190.90 445.41,195.00 434.14,199.10 422.86,195.00" fill="#40c463"/>
<polygon points="422.86,210.00 422.86,195.00 434.14,199.10 434.14,214.10" fill="#38ac57"/>
<polygon points="434.14,214.10 434.14,199.10 445.41,195.00 445.41,210.00" fill="#2f9149"/>
<polygon points="486.76,191.90 498.04,196.00 486.76,200.10 475.48,196.00" fill="#40c463"/>
<polygon points="475.48,210.00 475.48,196.00 486.76,200.10 486.76,214.10" fill="#38ac57"/>
<polygon points="486.76,214.10 486.76,200.10 498.04,196.00 498.04,210.00" fill="#2f9149"/>
<polygon points="539.38,189.90 550.66,194.00 539.38,198.10 528.11,194.00" fill="#40c463"/>
<polygon points="528.11,210.00 528.11,194.00 539.38,198.10 539.38,214.10" fill="#38ac57"/>
<polygon points="539.38,214.10 539.38,198.10 550.66,194.00 550.66,210.00" fill="#2f9149"/>
<polygon points="578.85,210.68 590.13,214.79 578.85,218.89 567.57,214.79" fill="#ebedf0"/>
<polygon points="447.29,199.68 458.57,203.79 447.29,207.89 436.02,203.79" fill="#9be9a8"/>
<polygon points="436.02,214.79 436.02,203.79 447.29,207.89 447.29,218.89" fill="#88cd93"/>
<polygon points="447.29,218.89 447.29,207.89 458.57,203.79 458.57,214.79" fill="#72ac7c"/>
<polygon points="473.61,199.68 484.88,203.79 473.61,207.89 462.33,203.79" fill="#9be9a8"/>
<polygon points="462.33,214.79 462.33,203.79 473.61,207.89 473.61,218.89" fill="#88cd93"/>
<polygon points="473.61,218.89 473.61,207.89 484.88,203.79 484.88,214.79" fill="#72ac7c"/>
<polygon points="499.92,202.68 511.19,206.79 499.92,210.89 488.64,206.79" fill="#9be9a8"/>
<polygon points="488.64,214.79 488.64,206.79 499.92,210.89 499.92,218.89" fill="#88cd93"/>
<polygon points="499.92,218.89 499.92,210.89 511.19,206.79 511.19,214.79" fill="#72ac7c"/>
<polygon points="552.54,199.68 563.82,203.79 552.54,207.89 541.26,203.79" fill="#9be9a8"/>
<polygon points="541.26,214.79 541.26,203.79 552.54,207.89 552.54,218.89" fill="#88cd93"/>
<polygon points="552.54,218.89 552.54,207.89 563.82,203.79 563.82,214.79" fill="#72ac7c"/>
<polygon points="420.98,195.68 432.26,199.79 420.98,203.89 409.71,199.79" fill="#40c463"/>
<polygon points="409.71,214.79 409.71,199.79 420.98,203.89 420.98,218.89" fill="#38ac57"/>
<polygon points="420.98,218.89 420.98,203.89 432.26,199.79 432.26,214.79" fill="#2f9149"/>
<polygon points="526.23,194.68 537.50,198.79 526.23,202.89 514.95,198.79" fill="#30a14e"/>
<polygon points="514.95,214.79 514.95,198.79 526.23,202.89 526.23,218.89" fill="#2a8d44"/>
<polygon points="526.23,218.89 526.23,202.89 537.50,198.79 537.50,214.79" fill="#237739"/>
<polygon points="486.76,215.47 498.04,219.58 486.76,223.68 475.48,219.58" fill="#ebedf0"/>
<polygon points="592.01,215.47 603.28,219.58 592.01,223.68 580.73,219.58" fill="#ebedf0"/>
<polygon points="434.14,207.47 445.41,211.58 434.14,215.68 422.86,211.58" fill="#9be9a8"/>
<polygon points="422.86,219.58 422.86,211.58 434.14,215.68 434.14,223.68" fill="#88cd93"/>
<polygon points="434.14,223.68 434.14,215.68 445.41,211.58 445.41,219.58" fill="#72ac7c"/>
<polygon points="460.45,204.47 471.73,208.58 460.45,212.68 449.17,208.58" fill="#9be9a8"/>
<polygon points="449.17,219.58 449.17,208.58 460.45,212.68 460.45,223.68" fill="#88cd93"/>
<polygon points="460.45,223.68 460.45,212.68 471.73,208.58 471.73,219.58" fill="#72ac7c"/>
<polygon points="513.07,207.47 524.35,211.58 513.07,215.68 501.80,211.58" fill="#9be9a8"/>
<polygon points="501.80,219.58 501.80,211.58 513.07,215.68 513.07,223.68" fill="#88cd93"/>
<polygon points="513.07,223.68 513.07,215.68 524.35,211.58 524.35,219.58" fill="#72ac7c"/>
<polygon points="565.69,200.47 576.97,204.58 565.69,208.68 554.42,204.58" fill="#40c463"/>
<polygon points="554.42,219.58 554.42,204.58 565.69,208.68 565.69,223.68" fill="#38ac57"/>
<polygon points="565.69,223.68 565.69,208.68 576.97,204.58 576.97,219.58" fill="#2f9149"/>
<polygon points="539.38,197.47 550.66,201.58 539.38,205.68 528.11,201.58" fill="#30a14e"/>
<polygon points="528.11,219.58 528.11,201.58 539.38,205.68 539.38,223.68" fill="#2a8d44"/>
<polygon points="539.38,223.68 539.38,205.68 550.66,201.58 550.66,219.58" fill="#237739"/>
<polygon points="447.29,220.26 458.57,224.37 447.29,228.47 436.02,224.37" fill="#ebedf0"/>
<polygon points="473.61,220.26 484.88,224.37 473.61,228.47 462.33,224.37" fill="#ebedf0"/>
<polygon points="526.23,220.26 537.50,224.37 526.23,228.47 514.95,224.37" fill="#ebedf0"/>
<polygon points="605.16,220.26 616.44,224.37 605.16,228.47 593.89,224.37" fill="#ebedf0"/>
<polygon points="578.85,207.26 590.13,211.37 578.85,215.47 567.57,211.37" fill="#9be9a8"/>
<polygon points="567.57,224.37 567.57,211.37 578.85,215.47 578.85,228.47" fill="#88cd93"/>
<polygon points="578.85,228.47 578.85,215.47 590.13,211.37 590.13,224.37" fill="#72ac7c"/>
<polygon points="499.92,205.26 511.19,209.37 499.92,213.47 488.64,209.37" fill="#40c463"/>
<polygon points="488.64,224.37 488.64,209.37 499.92,213.47 499.92,228.47" fill="#38ac57"/>
<polygon points="499.92,228.47 499.92,213.47 511.19,209.37 511.19,224.37" fill="#2f9149"/>
<polygon points="552.54,202.26 563.82,206.37 552.54,210.47 541.26,206.37" fill="#216e39"/>
<polygon points="541.26,224.37 541.26,206.37 552.54,210.47 552.54,228.47" fill="#1d6032"/>
<polygon points="552.54,228.47 552.54,210.47 563.82,206.37 563.82,224.37" fill="#18512a"/>
<polygon points="592.01,225.05 603.28,229.15 592.01,233.26 580.73,229.15" fill="#ebedf0"/>
<polygon points="618.32,225.05 629.59,229.15 618.32,233.26 607.04,229.15" fill="#ebedf0"/>
<polygon points="460.45,214.05 471.73,218.15 460.45,222.26 449.17,218.15" fill="#9be9a8"/>
<polygon points="449.17,229.15 449.17,218.15 460.45,222.26 460.45,233.26" fill="#88cd93"/>
<polygon points="460.45,233.26 460.45,222.26 471.73,218.15 471.73,229.15" fill="#72ac7c"/>
<polygon points="486.76,211.05 498.04,215.15 486.76,219.26 475.48,215.15" fill="#40c463"/>
<polygon points="475.48,229.15 475.48,215.15 486.76,219.26 486.76,233.26" fill="#38ac57"/>
<polygon points="486.76,233.26 486.76,219.26 498.04,215.15 498.04,229.15" fill="#2f9149"/>
<polygon points="565.69,210.05 576.97,214.15 565.69,218.26 554.42,214.15" fill="#40c463"/>
<polygon points="554.42,229.15 554.42,214.15 565.69,218.26 565.69,233.26" fill="#38ac57"/>
<polygon points="565.69,233.26 565.69,218.26 576.97,214.15 576.97,229.15" fill="#2f9149"/>
<polygon points="513.07,208.05 524.35,212.15 513.07,216.26 501.80,212.15" fill="#30a14e"/>
<polygon points="501.80,229.15 501.80,212.15 513.07,216.26 513.07,233.26" fill="#2a8d44"/>
<polygon points="513.07,233.26 513.07,216.26 524.35,212.15 524.35,229.15" fill="#237739"/>
<polygon points="539.38,209.05 550.66,213.15 539.38,217.26 528.11,213.15" fill="#30a14e"/>
<polygon points="528.11,229.15 528.11,213.15 539.38,217.26 539.38,233.26" fill="#2a8d44"/>
<polygon points="539.38,233.26 539.38,217.26 550.66,213.15 550.66,229.15" fill="#237739"/>
<polygon points="526.23,229.84 537.50,233.94 526.23,238.05 514.95,233.94" fill="#ebedf0"/>
<polygon points="578.85,229.84 590.13,233.94 578.85,238.05 567.57,233.94" fill="#ebedf0"/>
<polygon points="473.61,221.84 484.88,225.94 473.61,230.05 462.33,225.94" fill="#9be9a8"/>
<polygon points="462.33,233.94 462.33,225.94 473.61,230.05 473.61,238.05" fill="#88cd93"/>
<polygon points="473.61,238.05 473.61,230.05 484.88,225.94 484.88,233.94" fill="#72ac7c"/>
<polygon points="605.16,221.84 616.44,225.94 605.16,230.05 593.89,225.94" fill="#9be9a8"/>
<polygon points="593.89,233.94 593.89,225.94 605.16,230.05 605.16,238.05" fill="#88cd93"/>
<polygon points="605.16,238.05 605.16,230.05 616.44,225.94 616.44,233.94" fill="#72ac7c"/>
<polygon points="631.47,221.84 642.75,225.94 631.47,230.05 620.20,225.94" fill="#9be9a8"/>
<polygon points="620.20,233.94 620.20,225.94 631.47,230.05 631.47,238.05" fill="#88cd93"/>
<polygon points="631.47,238.05 631.47,230.05 642.75,225.94 642.75,233.94" fill="#72ac7c"/>
<polygon points="499.92,215.84 511.19,219.94 499.92,224.05 488.64,219.94" fill="#40c463"/>
<polygon points="488.64,233.94 488.64,219.94 499.92,224.05 499.92,238.05" fill="#38ac57"/>
<polygon points="499.92,238.05 499.92,224.05 511.19,219.94 511.19,233.94" fill="#2f9149"/>
<polygon points="552.54,211.84 563.82,215.94 552.54,220.05 541.26,215.94" fill="#216e39"/>
<polygon points="541.26,233.94 541.26,215.94 552.54,220.05 552.54,238.05" fill="#1d6032"/>
<polygon points="552.54,238.05 552.54,220.05 563.82,215.94 563.82,233.94" fill="#18512a"/>
<polygon points="539.38,234.63 550.66,238.73 539.38,242.83 528.11,238.73" fill="#ebedf0"/>
<polygon points="618.32,234.63 629.59,238.73 618.32,242.83 607.04,238.73" fill="#ebedf0"/>
<polygon points="565.69,221.63 576.97,225.73 565.69,229.83 554.42,225.73" fill="#9be9a8"/>
<polygon points="554.42,238.73 554.42,225.73 565.69,229.83 565.69,242.83" fill="#88cd93"/>
<polygon points="565.69,242.83 565.69,229.83 576.97,225.73 576.97,238.73" fill="#72ac7c"/>
<polygon points="592.01,221.63 603.28,225.73 592.01,229.83 580.73,225.73" fill="#9be9a8"/>
<polygon points="580.73,238.73 580.73,225.73 592.01,229.83 592.01,242.83" fill="#88cd93"/>
<polygon points="592.01,242.83 592.01,229.83 603.28,225.73 603.28,238.73" fill="#72ac7c"/>
<polygon points="486.76,220.63 498.04,224.73 486.76,228.83 475.48,224.73" fill="#40c463"/>
<polygon points="475.48,238.73 475.48,224.73 486.76,228.83 486.76,242.83" fill="#38ac57"/>
<polygon points="486.76,242.83 486.76,228.83 498.04,224.73 498.04,238.73" fill="#2f9149"/>
<polygon points="513.07,220.63 524.35,224.73 513.07,228.83 501.80,224.73" fill="#40c463"/>
<polygon points="501.80,238.73 501.80,224.73 513.07,228.83 513.07,242.83" fill="#38ac57"/>
<polygon points="513.07,242.83 513.07,228.83 524.35,224.73 524.35,238.73" fill="#2f9149"/>
<polygon points="644.63,217.63 655.91,221.73 644.63,225.83 633.35,221.73" fill="#30a14e"/>
<polygon points="633.35,238.73 633.35,221.73 644.63,225.83 644.63,242.83" fill="#2a8d44"/>
<polygon points="644.63,242.83 644.63,225.83 655.91,221.73 655.91,238.73" fill="#237739"/>
<polygon points="526.23,239.41 537.50,243.52 526.23,247.62 514.95,243.52" fill="#ebedf0"/>
<polygon points="552.54,239.41 563.82,243.52 552.54,247.62 541.26,243.52" fill="#ebedf0"/>
<polygon points="657.78,239.41 669.06,243.52 657.78,247.62 646.51,243.52" fill="#ebedf0"/>
<polygon points="578.85,225.41 590.13,229.52 578.85,233.62 567.57,229.52" fill="#40c463"/>
<polygon points="567.57,243.52 567.57,229.52 578.85,233.62 578.85,247.62" fill="#38ac57"/>
<polygon points="578.85,247.62 578.85,233.62 590.13,229.52 590.13,243.52" fill="#2f9149"/>
<polygon points="605.16,225.41 616.44,229.52 605.16,233.62 593.89,229.52" fill="#40c463"/>
<polygon points="593.89,243.52 593.89,229.52 605.16,233.62 605.16,247.62" fill="#38ac57"/>
<polygon points="605.16,247.62 605.16,233.62 616.44,229.52 616.44,243.52" fill="#2f9149"/>
<polygon points="631.47,224.41 642.75,228.52 631.47,232.62 620.20,228.52" fill="#40c463"/>
<polygon points="620.20,243.52 620.20,228.52 631.47,232.62 631.47,247.62" fill="#38ac57"/>
<polygon points="631.47,247.62 631.47,232.62 642.75,228.52 642.75,243.52" fill="#2f9149"/>
<polygon points="499.92,221.41 511.19,225.52 499.92,229.62 488.64,225.52" fill="#216e39"/>
<polygon points="488.64,243.52 488.64,225.52 499.92,229.62 499.92,247.62" fill="#1d6032"/>
<polygon points="499.92,247.62 499.92,229.62 511.19,225.52 511.19,243.52" fill="#18512a"/>
<polygon points="513.07,244.20 524.35,248.31 513.07,252.41 501.80,248.31" fill="#ebedf0"/>
<polygon points="592.01,244.20 603.28,248.31 592.01,252.41 580.73,248.31" fill="#ebedf0"/>
<polygon points="670.94,244.20 682.22,248.31 670.94,252.41 659.66,248.31" fill="#ebedf0"/>
<polygon points="539.38,236.20 550.66,240.31 539.38,244.41 528.11,240.31" fill="#9be9a8"/>
<polygon points="528.11,248.31 528.11,240.31 539.38,244.41 539.38,252.41" fill="#88cd93"/>
<polygon points="539.38,252.41 539.38,244.41 550.66,240.31 550.66,248.31" fill="#72ac7c"/>
<polygon points="644.63,231.20 655.91,235.31 644.63,239.41 633.35,235.31" fill="#9be9a8"/>
<polygon points="633.35,248.31 633.35,235.31 644.63,239.41 644.63,252.41" fill="#88cd93"/>
<polygon points="644.63,252.41 644.63,239.41 655.91,235.31 655.91,248.31" fill="#72ac7c"/>
<polygon points="565.69,226.20 576.97,230.31 565.69,234.41 554.42,230.31" fill="#216e39"/>
<polygon points="554.42,248.31 554.42,230.31 565.69,234.41 565.69,252.41" fill="#1d6032"/>
<polygon points="565.69,252.41 565.69,234.41 576.97,230.31 576.97,248.31" fill="#18512a"/>
<polygon points="618.32,226.20 629.59,230.31 618.32,234.41 607.04,230.31" fill="#216e39"/>
<polygon points="607.04,248.31 607.04,230.31 618.32,234.41 618.32,252.41" fill="#1d6032"/>
<polygon points="618.32,252.41 618.32,234.41 629.59,230.31 629.59,248.31" fill="#18512a"/>
<polygon points="526.23,248.99 537.50,253.09 526.23,257.20 514.95,253.09" fill="#ebedf0"/>
<polygon points="552.54,248.99 563.82,253.09 552.54,257.20 541.26,253.09" fill="#ebedf0"/>
<polygon points="578.85,248.99 590.13,253.09 578.85,257.20 567.57,253.09" fill="#ebedf0"/>
<polygon points="684.10,248.99 695.37,253.09 684.10,257.20 672.82,253.09" fill="#ebedf0"/>
<polygon points="605.16,235.99 616.44,240.09 605.16,244.20 593.89,240.09" fill="#9be9a8"/>
<polygon points="593.89,253.09 593.89,240.09 605.16,244.20 605.16,257.20" fill="#88cd93"/>
<polygon points="605.16,257.20 605.16,244.20 616.44,240.09 616.44,253.09" fill="#72ac7c"/>
<polygon points="631.47,240.99 642.75,245.09 631.47,249.20 620.20,245.09" fill="#9be9a8"/>
<polygon points="620.20,253.09 620.20,245.09 631.47,249.20 631.47,257.20" fill="#88cd93"/>
<polygon points="631.47,257.20 631.47,249.20 642.75,245.09 642.75,253.09" fill="#72ac7c"/>
<polygon points="657.78,230.99 669.06,235.09 657.78,239.20 646.51,235.09" fill="#216e39"/>
<polygon points="646.51,253.09 646.51,235.09 657.78,239.20 657.78,257.20" fill="#1d6032"/>
<polygon points="657.78,257.20 657.78,239.20 669.06,235.09 669.06,253.09" fill="#18512a"/>
<polygon points="539.38,253.78 550.66,257.88 539.38,261.99 528.11,257.88" fill="#ebedf0"/>
<polygon points="670.94,253.78 682.22,257.88 670.94,261.99 659.66,257.88" fill="#ebedf0"/>
<polygon points="618.32,242.78 629.59,246.88 618.32,250.99 607.04,246.88" fill="#9be9a8"/>
<polygon points="607.04,257.88 607.04,246.88 618.32,250.99 618.32,261.99" fill="#88cd93"/>
<polygon points="618.32,261.99 618.32,250.99 629.59,246.88 629.59,257.88" fill="#72ac7c"/>
<polygon points="565.69,237.78 576.97,241.88 565.69,245.99 554.42,241.88" fill="#30a14e"/>
<polygon points="554.42,257.88 554.42,241.88 565.69,245.99 565.69,261.99" fill="#2a8d44"/>
<polygon points="565.69,261.99 565.69,245.99 576.97,241.88 576.97,257.88" fill="#237739"/>
<polygon points="644.63,235.78 655.91,239.88 644.63,243.99 633.35,239.88" fill="#30a14e"/>
<polygon points="633.35,257.88 633.35,239.88 644.63,243.99 644.63,261.99" fill="#2a8d44"/>
<polygon points="644.63,261.99 644.63,243.99 655.91,239.88 655.91,257.88" fill="#237739"/>
<polygon points="592.01,235.78 603.28,239.88 592.01,243.99 580.73,239.88" fill="#216e39"/>
<polygon points="580.73,257.88 580.73,239.88 592.01,243.99 592.01,261.99" fill="#1d6032"/>
<polygon points="592.01,261.99 592.01,243.99 603.28,239.88 603.28,257.88" fill="#18512a"/>
<polygon points="578.85,245.57 590.13,249.67 578.85,253.78 567.57,249.67" fill="#9be9a8"/>
<polygon points="567.57,262.67 567.57,249.67 578.85,253.78 578.85,266.78" fill="#88cd93"/>
<polygon points="578.85,266.78 578.85,253.78 590.13,249.67 590.13,262.67" fill="#72ac7c"/>
<polygon points="605.16,247.57 616.44,251.67 605.16,255.78 593.89,251.67" fill="#9be9a8"/>
<polygon points="593.89,262.67 593.89,251.67 605.16,255.78 605.16,266.78" fill="#88cd93"/>
<polygon points="605.16,266.78 605.16,255.78 616.44,251.67 616.44,262.67" fill="#72ac7c"/>
<polygon points="552.54,244.57 563.82,248.67 552.54,252.78 541.26,248.67" fill="#40c463"/>
<polygon points="541.26,262.67 541.26,248.67 552.54,252.78 552.54,266.78" fill="#38ac57"/>
<polygon points="552.54,266.78 552.54,252.78 563.82,248.67 563.82,262.67" fill="#2f9149"/>
<polygon points="631.47,244.57 642.75,248.67 631.47,252.78 620.20,248.67" fill="#40c463"/>
<polygon points="620.20,262.67 620.20,248.67 631.47,252.78 631.47,266.78" fill="#38ac57"/>
<polygon points="631.47,266.78 631.47,252.78 642.75,248.67 642.75,262.67" fill="#2f9149"/>
<polygon points="618.32,263.36 629.59,267.46 618.32,271.56 607.04,267.46" fill="#ebedf0"/>
<polygon points="592.01,252.36 603.28,256.46 592.01,260.56 580.73,256.46" fill="#9be9a8"/>
<polygon points="580.73,267.46 580.73,256.46 592.01,260.56 592.01,271.56" fill="#88cd93"/>
<polygon points="592.01,271.56 592.01,260.56 603.28,256.46 603.28,267.46" fill="#72ac7c"/>
<polygon points="565.69,247.36 576.97,251.46 565.69,255.56 554.42,251.46" fill="#40c463"/>
<polygon points="554.42,267.46 554.42,251.46 565.69,255.56 565.69,271.56" fill="#38ac57"/>
<polygon points="565.69,271.56 565.69,255.56 576.97,251.46 576.97,267.46" fill="#2f9149"/>
<polygon points="605.16,268.14 616.44,272.25 605.16,276.35 593.89,272.25" fill="#ebedf0"/>
<polygon points="578.85,255.14 590.13,259.25 578.85,263.35 567.57,259.25" fill="#9be9a8"/>
<polygon points="567.57,272.25 567.57,259.25 578.85,263.35 578.85,276.35" fill="#88cd93"/>
<polygon points="578.85,276.35 578.85,263.35 590.13,259.25 590.13,272.25" fill="#72ac7c"/>
<polygon points="592.01,272.93 603.28,277.04 592.01,281.14 580.73,277.04" fill="#ebedf0"/>
<text x="697.25" y="14.00" text-anchor="end" font-family='-apple-system, BlinkMacSystemFont, "Segoe UI", Helvetica, Arial, sans-serif' font-size="34" font-weight="700" fill="#216e39">728</text>
<text x="697.25" y="26.00" text-anchor="end" font-family='-apple-system, BlinkMacSystemFont, "Segoe UI", Helvetica, Arial, sans-serif' font-size="10" fill="#59636e" letter-spacing="0.8">TOTAL CONTRIBUTIONS</text>
<rect x="-92.09" y="212.12" width="12" height="27.18" rx="1" fill="#40c463"/>
<text x="-86.09" y="257.30" text-anchor="middle" font-family='-apple-system, BlinkMacSystemFont, "Segoe UI", Helvetica, Arial, sans-serif' font-size="11" fill="#59636e">S</text>
<rect x="-76.09" y="195.81" width="12" height="43.49" rx="1" fill="#40c463"/>
<text x="-70.09" y="257.30" text-anchor="middle" font-family='-apple-system, BlinkMacSystemFont, "Segoe UI", Helvetica, Arial, sans-serif' font-size="11" fill="#59636e">M</text>
<rect x="-60.09" y="185.30" width="12" height="54.00" rx="1" fill="#216e39"/>
<text x="-54.09" y="257.30" text-anchor="middle" font-family='-apple-system, BlinkMacSystemFont, "Segoe UI", Helvetica, Arial, sans-serif' font-size="11" fill="#59636e">T</text>
<rect x="-44.09" y="202.69" width="12" height="36.60" rx="1" fill="#40c463"/>
<text x="-38.09" y="257.30" text-anchor="middle" font-family='-apple-system, BlinkMacSystemFont, "Segoe UI", Helvetica, Arial, sans-serif' font-size="11" fill="#59636e">W</text>
<rect x="-28.09" y="200.88" width="12" height="38.42" rx="1" fill="#40c463"/>
<text x="-22.09" y="257.30" text-anchor="middle" font-family='-apple-system, BlinkMacSystemFont, "Segoe UI", Helvetica, Arial, sans-serif' font-size="11" fill="#59636e">T</text>
<rect x="-12.09" y="199.79" width="12" height="39.50" rx="1" fill="#40c463"/>
<text x="-6.09" y="257.30" text-anchor="middle" font-family='-apple-system, BlinkMacSystemFont, "Segoe UI", Helvetica, Arial, sans-serif' font-size="11" fill="#59636e">F</text>
<rect x="3.91" y="214.65" width="12" height="24.64" rx="1" fill="#40c463"/>
<text x="9.91" y="257.30" text-anchor="middle" font-family='-apple-system, BlinkMacSystemFont, "Segoe UI", Helvetica, Arial, sans-serif' font-size="11" fill="#59636e">S</text>
<text x="-92.09" y="277.30" font-family='-apple-system, BlinkMacSystemFont, "Segoe UI", Helvetica, Arial, sans-serif' font-size="12" fill="#59636e" letter-spacing="0.3">Most active days</text>
<text x="-92.09" y="293.30" font-family='-apple-system, BlinkMacSystemFont, "Segoe UI", Helvetica, Arial, sans-serif' font-size="9" fill="#59636e">Data pulled daily from GitHub.</text>
<text x="-92.09" y="303.30" font-family='-apple-system, BlinkMacSystemFont, "Segoe UI", Helvetica, Arial, sans-serif' font-size="9" fill="#59636e">Rolling last-12-month activity.</text>
</svg>